<?xml version="1.0" encoding="UTF-8"?>
<svg id="Layer_1" data-name="Layer 1" xmlns="http://www.w3.org/2000/svg" viewBox="0 0 593.01 585.63">
  <defs>
    <style>
      .cls-1 {
        fill: #239d9f;
      }

      .cls-2 {
        stroke: #3f86c7;
      }

      .cls-2, .cls-3 {
        fill: none;
        stroke-miterlimit: 10;
        stroke-width: 10px;
      }

      .cls-3 {
        stroke: #fff;
      }

      .cls-4 {
        fill: #3f86c7;
      }
    </style>
  </defs>
  <g>
    <g>
      <path class="cls-1" d="M587.4,252.55l-288.91,103.95L.04,251.23l44.28,155.61c34.01,8.81,67.05,19.47,99.07,32,27.44,10.75,53.5,22.54,78.18,35.37-4.32,7.96-8.37,16.32-12.15,25.07-4.85,11.26-9.26,22.61-13.23,34.08-3.97,11.47-7.27,22.5-9.92,33.08l30.44,19.18c18.54-18.92,39.85-37.28,63.93-55.09,5.19-3.84,10.48-7.61,15.86-11.34,5.38,3.73,10.67,7.5,15.86,11.34,24.08,17.81,45.38,36.17,63.93,55.09l30.44-19.18c-2.65-10.59-5.95-21.61-9.92-33.08-3.97-11.47-8.38-22.82-13.23-34.08-3.78-8.76-7.83-17.11-12.15-25.08,24.68-12.83,50.75-24.62,78.19-35.37,32.02-12.53,65.05-23.2,99.07-32l44.32-155.76c-1.87.48-3.73.98-5.6,1.47Z"/>
      <path class="cls-1" d="M0,251.08l.04.15,28.4,7.62c-9.53-2.72-19.02-5.31-28.44-7.76Z"/>
    </g>
    <path class="cls-1" d="M472.11,109.24c-11.27,13.04-27.77,21.27-46.16,21.27-33.97,0-61.51-28.08-61.51-62.72,0-9.17,1.93-17.87,5.4-25.72-4.44-.43-8.98-.65-13.63-.65-20.44,0-39.89,6.31-58.36,18.92-18.47-12.61-37.92-18.92-58.36-18.92-27.82,0-51.89,7.65-72.21,22.94-4.85,4.5-12.25,11.59-22.2,21.26-9.93,9.66-20.21,21.47-30.81,35.42l47.31,124.33c-1.7,3.61-3.31,7.18-4.84,10.69-6.32,14.56-10.89,27.41-13.72,38.58l157.29,43.01,152.44-42.67c-2.83-11.24-7.42-24.21-13.81-38.91-1.52-3.51-3.14-7.08-4.84-10.69l47.31-124.33c-3.13-4.12-6.23-8.05-9.31-11.79ZM352.42,218.01l-55.44,56.54-55.44-56.54c-54.9-55.98.54-112.52,55.44-56.54,53.36-54.41,108.81,2.12,55.44,56.54Z"/>
  </g>
  <g>
    <g>
      <path class="cls-4" d="M446.21,94.24c-1.2-1.2-2.67-1.79-4.4-1.79s-3.16.6-4.35,1.79c-1.17,1.19-1.77,2.65-1.77,4.4s.59,3.29,1.77,4.49c1.19,1.2,2.64,1.79,4.35,1.79s3.18-.6,4.4-1.79c1.22-1.19,1.82-2.69,1.82-4.49s-.6-3.21-1.82-4.4h0Z"/>
      <path class="cls-4" d="M430.14,69.53h-8.47c-2.01,0-3.44-.57-4.28-1.71-.85-1.14-1.27-2.36-1.27-3.67v-23c0-1.36.42-2.59,1.27-3.7.85-1.11,2.27-1.67,4.28-1.67h10.2c2.01,0,3.44.56,4.28,1.67.85,1.11,1.27,2.35,1.27,3.7v.77c0,.14-.02.29-.02.45v42.07c0,.15,0,.29.02.45v.14c0,2.55,1.5,3.83,4.49,3.83s4.49-1.31,4.49-3.92v-44.36c0-2.22-.4-4.17-1.19-5.83-.79-1.65-1.84-2.95-3.13-3.87-1.53-.86-3.01-1.54-4.45-2.04-1.47-.48-2.89-.73-4.31-.73h-13.13c-1.42,0-2.86.25-4.32.74-1.47.49-2.9,1.17-4.32,2.04-1.36.93-2.44,2.21-3.23,3.83-.79,1.64-1.17,3.6-1.17,5.87v24.14c0,2.28.29,4.31.86,6.08.57,1.77,1.62,3.12,3.13,4.03,1.42.93,2.93,1.54,4.57,1.87,1.64.32,3.15.49,4.57.49h9.86c1.03,0,1.77-.37,2.24-1.1.46-.74.69-1.64.69-2.73,0-2.55-.97-3.83-2.93-3.83h0Z"/>
    </g>
    <g>
      <circle class="cls-3" cx="427.58" cy="66.51" r="61.51"/>
      <circle class="cls-2" cx="427.58" cy="66.51" r="51.48"/>
    </g>
  </g>
</svg>